# xmcd
#
# Track frame offsets:
#	150
#	22256
#	46127
#	63449
#	87498
#	102219
#	124463
#	145311
#	166432
#	195893
#	213191
#	232278
#	246316
#
# Disc length: 3520 seconds
#
# Revision: 0
# Processed by: cddbd v1.5.2PL0 Copyright (c) Steve Scherf et al.
# Submitted via: EasyCDDAExtractor 16.0.6.1
#
DISCID=bf0dbe0d
DTITLE=Χατζηχρόνογλου Γιώργος - Μικρασίας λύθρος-Γ. Χατζηχρόνογλου
DYEAR=2007
DGENRE=Παραδοσιακή
TTITLE0=Χατζηχρόνογλου Γιώργος - Από μικρός ορφάνεψα [μουσ. στ. Δημ. Ατραΐδης]
TTITLE1=Χατζηχρόνογλου Γιώργος - Αμανές σε δευτερόπρωτο [αυτοσχ. Γ. Χατζηχρόνο
TTITLE1=γλου]
TTITLE2=Χατζηχρόνογλου Γιώργος - Σύρε να πεις στη μάννα σου (Μπιταγιάλα)
TTITLE3=Χατζηχρόνογλου Γιώργος - Της αγάπης το βοτάνι [αμανές]
TTITLE4=Άνευ ερμηνευτού - Πέργαμος [οργανικό]
TTITLE5=Χατζηχρόνογλου Ελίνα-χορωδία - Στό 'πα και στο ξαναλέω
TTITLE6=Χατζηχρόνογλου Γιώργος-χορωδία - Μπαρμπα Γιαννακάκης
TTITLE7=Χατζηχρόνογλου Γιώργος - Αυτά τα μάτια τα γλυκά
TTITLE8=Χατζηχρόνογλου Γιώργος - Το πονεμένο στήθος μου [αμανές]
TTITLE9=Χατζηχρόνογλου Γιώργος - Βάλε με στην αγκαλιά σου [μουσ. στ. Βαγγ. Παπ
TTITLE9=άζογλου]
TTITLE10=Χατζηχρόνογλου Γιώργος - Αμανές ραστ [πλάγ. του δ', αυτοσχ. Γ. Χατζηχ
TTITLE10=ρόνογλου]
TTITLE11=Αραβανή Ρούλα-Φραντζή Άννα-Χατζηχρόνογλου Ελίνα - Καναρίνι μου γλυκό
TTITLE12=Χατζηχρόνογλου Γιώργος-χορωδία - Πελαγιούλα
EXTD=
EXTT0=
EXTT1=
EXTT2=
EXTT3=
EXTT4=
EXTT5=
EXTT6=
EXTT7=
EXTT8=
EXTT9=
EXTT10=
EXTT11=
EXTT12=
PLAYORDER=
